<mxfile host="65bd71144e">
    <diagram id="0InjhLnmFeNZufS4UHry" name="k8s Architecture">
        <mxGraphModel dx="903" dy="637" grid="1" gridSize="10" guides="1" tooltips="1" connect="1" arrows="1" fold="1" page="1" pageScale="1" pageWidth="1100" pageHeight="850" math="0" shadow="0">
            <root>
                <mxCell id="0"/>
                <mxCell id="1" parent="0"/>
                <mxCell id="87" value="" style="rounded=1;whiteSpace=wrap;html=1;fillColor=none;strokeColor=#82b366;" vertex="1" parent="1">
                    <mxGeometry x="57" y="1170" width="258" height="150" as="geometry"/>
                </mxCell>
                <mxCell id="62" value="" style="rounded=1;whiteSpace=wrap;html=1;" vertex="1" parent="1">
                    <mxGeometry x="687.1700000000001" y="810" width="388" height="360" as="geometry"/>
                </mxCell>
                <mxCell id="2" value="" style="rounded=1;whiteSpace=wrap;html=1;arcSize=6;dashed=1;dashPattern=8 8;" parent="1" vertex="1">
                    <mxGeometry x="10" y="10" width="860" height="750" as="geometry"/>
                </mxCell>
                <mxCell id="4" value="" style="rounded=1;whiteSpace=wrap;html=1;arcSize=8;dashed=1;dashPattern=8 8;container=0;" parent="1" vertex="1">
                    <mxGeometry x="480" y="220" width="350" height="510" as="geometry"/>
                </mxCell>
                <mxCell id="6" value="" style="rounded=1;whiteSpace=wrap;html=1;arcSize=6;container=0;" parent="1" vertex="1">
                    <mxGeometry x="502.3404255319149" y="266.3636363636364" width="312.7659574468085" height="445.09090909090907" as="geometry"/>
                </mxCell>
                <mxCell id="7" value="" style="endArrow=none;dashed=1;html=1;dashPattern=1 3;strokeWidth=2;entryX=1;entryY=0.673;entryDx=0;entryDy=0;entryPerimeter=0;" parent="1" target="6" edge="1">
                    <mxGeometry width="50" height="50" relative="1" as="geometry">
                        <mxPoint x="502.3404255319149" y="563.090909090909" as="sourcePoint"/>
                        <mxPoint x="539.5744680851063" y="516.7272727272727" as="targetPoint"/>
                    </mxGeometry>
                </mxCell>
                <mxCell id="13" value="" style="rounded=1;whiteSpace=wrap;html=1;container=0;" parent="1" vertex="1">
                    <mxGeometry x="524.6808510638298" y="590.9090909090909" width="104.25531914893617" height="83.45454545454545" as="geometry"/>
                </mxCell>
                <mxCell id="14" value="" style="rounded=1;whiteSpace=wrap;html=1;container=0;" parent="1" vertex="1">
                    <mxGeometry x="681.063829787234" y="590.9090909090909" width="104.25531914893617" height="83.45454545454545" as="geometry"/>
                </mxCell>
                <mxCell id="16" value="&lt;font data-font-src=&quot;https://fonts.googleapis.com/css?family=Indie+Flower&quot; face=&quot;Indie Flower&quot;&gt;&lt;b&gt;Workload#1&lt;/b&gt;&lt;/font&gt;" style="rounded=1;whiteSpace=wrap;html=1;container=0;" parent="1" vertex="1">
                    <mxGeometry x="524.6808510638298" y="322" width="126.59574468085106" height="120.54545454545455" as="geometry"/>
                </mxCell>
                <mxCell id="17" value="&lt;font data-font-src=&quot;https://fonts.googleapis.com/css?family=Indie+Flower&quot; face=&quot;Indie Flower&quot;&gt;&lt;b&gt;Workload#2&lt;/b&gt;&lt;/font&gt;" style="rounded=1;whiteSpace=wrap;html=1;container=0;" parent="1" vertex="1">
                    <mxGeometry x="666.1702127659574" y="322" width="126.59574468085106" height="120.54545454545455" as="geometry"/>
                </mxCell>
                <mxCell id="26" value="" style="aspect=fixed;sketch=0;html=1;dashed=0;whitespace=wrap;verticalLabelPosition=bottom;verticalAlign=top;fillColor=#2875E2;strokeColor=#ffffff;points=[[0.005,0.63,0],[0.1,0.2,0],[0.9,0.2,0],[0.5,0,0],[0.995,0.63,0],[0.72,0.99,0],[0.5,1,0],[0.28,0.99,0]];shape=mxgraph.kubernetes.icon2;kubernetesLabel=1;prIcon=k_proxy;container=0;" parent="1" vertex="1">
                    <mxGeometry x="701.1702127659574" y="594.6181818181818" width="75.46938775510205" height="72.45" as="geometry"/>
                </mxCell>
                <mxCell id="27" value="" style="aspect=fixed;sketch=0;html=1;dashed=0;whitespace=wrap;verticalLabelPosition=bottom;verticalAlign=top;fillColor=#2875E2;strokeColor=#ffffff;points=[[0.005,0.63,0],[0.1,0.2,0],[0.9,0.2,0],[0.5,0,0],[0.995,0.63,0],[0.72,0.99,0],[0.5,1,0],[0.28,0.99,0]];shape=mxgraph.kubernetes.icon2;kubernetesLabel=1;prIcon=kubelet;container=0;" parent="1" vertex="1">
                    <mxGeometry x="544.7872340425532" y="594.6181818181818" width="75.46938775510205" height="72.45" as="geometry"/>
                </mxCell>
                <mxCell id="3" value="" style="rounded=1;whiteSpace=wrap;html=1;arcSize=8;dashed=1;dashPattern=8 8;container=0;" parent="1" vertex="1">
                    <mxGeometry x="30" y="135" width="430" height="600" as="geometry"/>
                </mxCell>
                <mxCell id="5" value="" style="rounded=1;whiteSpace=wrap;html=1;arcSize=8;container=0;" parent="1" vertex="1">
                    <mxGeometry x="47.55102040816327" y="181.875" width="394.89795918367344" height="534.375" as="geometry"/>
                </mxCell>
                <mxCell id="8" value="" style="rounded=1;whiteSpace=wrap;html=1;container=0;" parent="1" vertex="1">
                    <mxGeometry x="293.26530612244903" y="210" width="122.85714285714285" height="84.375" as="geometry"/>
                </mxCell>
                <mxCell id="39" style="edgeStyle=none;html=1;entryX=0.5;entryY=1;entryDx=0;entryDy=0;" parent="1" source="9" target="8" edge="1">
                    <mxGeometry relative="1" as="geometry"/>
                </mxCell>
                <mxCell id="41" style="edgeStyle=none;html=1;entryX=0.5;entryY=0;entryDx=0;entryDy=0;" parent="1" source="9" target="10" edge="1">
                    <mxGeometry relative="1" as="geometry"/>
                </mxCell>
                <mxCell id="42" style="edgeStyle=none;html=1;entryX=1;entryY=0.5;entryDx=0;entryDy=0;" parent="1" source="9" target="12" edge="1">
                    <mxGeometry relative="1" as="geometry"/>
                </mxCell>
                <mxCell id="43" style="edgeStyle=none;html=1;entryX=1;entryY=0.5;entryDx=0;entryDy=0;" parent="1" source="9" target="11" edge="1">
                    <mxGeometry relative="1" as="geometry"/>
                </mxCell>
                <mxCell id="i6A4bp0ibLuV1cn4jNwl-45" style="edgeStyle=entityRelationEdgeStyle;rounded=0;orthogonalLoop=1;jettySize=auto;html=1;elbow=vertical;" edge="1" parent="1" source="9" target="33">
                    <mxGeometry relative="1" as="geometry"/>
                </mxCell>
                <mxCell id="9" value="" style="rounded=1;whiteSpace=wrap;html=1;container=0;" parent="1" vertex="1">
                    <mxGeometry x="293.26530612244903" y="392.8125" width="122.85714285714285" height="84.375" as="geometry"/>
                </mxCell>
                <mxCell id="10" value="" style="rounded=1;whiteSpace=wrap;html=1;container=0;" parent="1" vertex="1">
                    <mxGeometry x="293.26530612244903" y="603.75" width="122.85714285714285" height="84.375" as="geometry"/>
                </mxCell>
                <mxCell id="11" value="" style="rounded=1;whiteSpace=wrap;html=1;container=0;" parent="1" vertex="1">
                    <mxGeometry x="82.65306122448979" y="491.25" width="122.85714285714285" height="84.375" as="geometry"/>
                </mxCell>
                <mxCell id="12" value="" style="rounded=1;whiteSpace=wrap;html=1;container=0;" parent="1" vertex="1">
                    <mxGeometry x="82.65306122448979" y="303.75" width="122.85714285714285" height="84.375" as="geometry"/>
                </mxCell>
                <mxCell id="22" value="" style="aspect=fixed;sketch=0;html=1;dashed=0;whitespace=wrap;verticalLabelPosition=bottom;verticalAlign=top;fillColor=#2875E2;strokeColor=#ffffff;points=[[0.005,0.63,0],[0.1,0.2,0],[0.9,0.2,0],[0.5,0,0],[0.995,0.63,0],[0.72,0.99,0],[0.5,1,0],[0.28,0.99,0]];shape=mxgraph.kubernetes.icon2;kubernetesLabel=1;prIcon=c_c_m;container=0;" parent="1" vertex="1">
                    <mxGeometry x="316.9591836734694" y="213.4875" width="75.46938775510205" height="72.45061224489797" as="geometry"/>
                </mxCell>
                <mxCell id="23" value="" style="aspect=fixed;sketch=0;html=1;dashed=0;whitespace=wrap;verticalLabelPosition=bottom;verticalAlign=top;fillColor=#2875E2;strokeColor=#ffffff;points=[[0.005,0.63,0],[0.1,0.2,0],[0.9,0.2,0],[0.5,0,0],[0.995,0.63,0],[0.72,0.99,0],[0.5,1,0],[0.28,0.99,0]];shape=mxgraph.kubernetes.icon2;kubernetesLabel=1;prIcon=api;container=0;" parent="1" vertex="1">
                    <mxGeometry x="316.9591836734694" y="396.3" width="75.46938775510205" height="72.45" as="geometry"/>
                </mxCell>
                <mxCell id="24" value="" style="aspect=fixed;sketch=0;html=1;dashed=0;whitespace=wrap;verticalLabelPosition=bottom;verticalAlign=top;fillColor=#2875E2;strokeColor=#ffffff;points=[[0.005,0.63,0],[0.1,0.2,0],[0.9,0.2,0],[0.5,0,0],[0.995,0.63,0],[0.72,0.99,0],[0.5,1,0],[0.28,0.99,0]];shape=mxgraph.kubernetes.icon2;kubernetesLabel=1;prIcon=c_m;container=0;" parent="1" vertex="1">
                    <mxGeometry x="106.34693877551021" y="307.23750000000007" width="75.46938775510205" height="72.45061224489797" as="geometry"/>
                </mxCell>
                <mxCell id="25" value="" style="aspect=fixed;sketch=0;html=1;dashed=0;whitespace=wrap;verticalLabelPosition=bottom;verticalAlign=top;fillColor=#2875E2;strokeColor=#ffffff;points=[[0.005,0.63,0],[0.1,0.2,0],[0.9,0.2,0],[0.5,0,0],[0.995,0.63,0],[0.72,0.99,0],[0.5,1,0],[0.28,0.99,0]];shape=mxgraph.kubernetes.icon2;kubernetesLabel=1;prIcon=etcd;container=0;" parent="1" vertex="1">
                    <mxGeometry x="106.34693877551021" y="494.7375" width="75.46938775510205" height="72.45061224489797" as="geometry"/>
                </mxCell>
                <mxCell id="28" value="" style="aspect=fixed;sketch=0;html=1;dashed=0;whitespace=wrap;verticalLabelPosition=bottom;verticalAlign=top;fillColor=#2875E2;strokeColor=#ffffff;points=[[0.005,0.63,0],[0.1,0.2,0],[0.9,0.2,0],[0.5,0,0],[0.995,0.63,0],[0.72,0.99,0],[0.5,1,0],[0.28,0.99,0]];shape=mxgraph.kubernetes.icon2;kubernetesLabel=1;prIcon=sched;container=0;" parent="1" vertex="1">
                    <mxGeometry x="316.9591836734694" y="607.2375" width="75.46938775510205" height="72.45061224489797" as="geometry"/>
                </mxCell>
                <mxCell id="33" value="Cloud API" style="html=1;whiteSpace=wrap;strokeColor=none;fillColor=#000000;labelPosition=center;verticalLabelPosition=middle;verticalAlign=top;align=center;fontSize=12;outlineConnect=0;spacingTop=-6;fontColor=#FFFFFF;sketch=0;shape=mxgraph.sitemap.cloud;" parent="1" vertex="1">
                    <mxGeometry x="940" y="65" width="120" height="70" as="geometry"/>
                </mxCell>
                <mxCell id="34" value="&lt;font face=&quot;Indie Flower&quot; style=&quot;font-size: 21px;&quot;&gt;&lt;b&gt;Cluster&lt;/b&gt;&lt;/font&gt;" style="text;html=1;align=center;verticalAlign=middle;resizable=0;points=[];autosize=1;strokeColor=none;fillColor=none;sketch=1;curveFitting=1;jiggle=2;" parent="1" vertex="1">
                    <mxGeometry x="47.549999999999955" y="25" width="80" height="40" as="geometry"/>
                </mxCell>
                <mxCell id="35" value="&lt;font face=&quot;Indie Flower&quot; style=&quot;font-size: 21px;&quot;&gt;&lt;b&gt;Control Plane&lt;/b&gt;&lt;/font&gt;" style="text;html=1;align=center;verticalAlign=middle;resizable=0;points=[];autosize=1;strokeColor=none;fillColor=none;sketch=1;curveFitting=1;jiggle=2;" parent="1" vertex="1">
                    <mxGeometry x="41.81999999999996" y="135" width="140" height="40" as="geometry"/>
                </mxCell>
                <mxCell id="36" value="&lt;font face=&quot;Indie Flower&quot; style=&quot;font-size: 21px;&quot;&gt;&lt;b&gt;Worker Node&lt;/b&gt;&lt;/font&gt;" style="text;html=1;align=center;verticalAlign=middle;resizable=0;points=[];autosize=1;strokeColor=none;fillColor=none;sketch=1;curveFitting=1;jiggle=2;" parent="1" vertex="1">
                    <mxGeometry x="511.27999999999986" y="275" width="140" height="40" as="geometry"/>
                </mxCell>
                <mxCell id="37" value="&lt;font face=&quot;Indie Flower&quot; style=&quot;font-size: 21px;&quot;&gt;&lt;b&gt;Control Plane Node&lt;/b&gt;&lt;/font&gt;" style="text;html=1;align=center;verticalAlign=middle;resizable=0;points=[];autosize=1;strokeColor=none;fillColor=none;sketch=1;curveFitting=1;jiggle=2;" parent="1" vertex="1">
                    <mxGeometry x="59.999999999999886" y="192" width="190" height="40" as="geometry"/>
                </mxCell>
                <mxCell id="38" value="&lt;font face=&quot;Indie Flower&quot; style=&quot;font-size: 21px;&quot;&gt;&lt;b&gt;Data Plane&lt;/b&gt;&lt;/font&gt;" style="text;html=1;align=center;verticalAlign=middle;resizable=0;points=[];autosize=1;strokeColor=none;fillColor=none;sketch=1;curveFitting=1;jiggle=2;" parent="1" vertex="1">
                    <mxGeometry x="500.2599999999999" y="226" width="120" height="40" as="geometry"/>
                </mxCell>
                <mxCell id="44" style="edgeStyle=none;html=1;entryX=0.985;entryY=0.613;entryDx=0;entryDy=0;entryPerimeter=0;" parent="1" source="13" target="9" edge="1">
                    <mxGeometry relative="1" as="geometry"/>
                </mxCell>
                <mxCell id="45" style="edgeStyle=none;html=1;entryX=1;entryY=0.5;entryDx=0;entryDy=0;" parent="1" source="14" target="9" edge="1">
                    <mxGeometry relative="1" as="geometry"/>
                </mxCell>
                <mxCell id="46" value="" style="aspect=fixed;sketch=0;html=1;dashed=0;whitespace=wrap;verticalLabelPosition=bottom;verticalAlign=top;fillColor=#2875E2;strokeColor=#ffffff;points=[[0.005,0.63,0],[0.1,0.2,0],[0.9,0.2,0],[0.5,0,0],[0.995,0.63,0],[0.72,0.99,0],[0.5,1,0],[0.28,0.99,0]];shape=mxgraph.kubernetes.icon2;kubernetesLabel=1;prIcon=pod" vertex="1" parent="1">
                    <mxGeometry x="716.1700000000001" y="820" width="83.34" height="80" as="geometry"/>
                </mxCell>
                <mxCell id="52" value="" style="aspect=fixed;sketch=0;html=1;dashed=0;whitespace=wrap;verticalLabelPosition=bottom;verticalAlign=top;fillColor=#2875E2;strokeColor=#ffffff;points=[[0.005,0.63,0],[0.1,0.2,0],[0.9,0.2,0],[0.5,0,0],[0.995,0.63,0],[0.72,0.99,0],[0.5,1,0],[0.28,0.99,0]];shape=mxgraph.kubernetes.icon2;kubernetesLabel=1;prIcon=pod" vertex="1" parent="1">
                    <mxGeometry x="836.1700000000001" y="820" width="83.34" height="80" as="geometry"/>
                </mxCell>
                <mxCell id="53" value="" style="aspect=fixed;sketch=0;html=1;dashed=0;whitespace=wrap;verticalLabelPosition=bottom;verticalAlign=top;fillColor=#2875E2;strokeColor=#ffffff;points=[[0.005,0.63,0],[0.1,0.2,0],[0.9,0.2,0],[0.5,0,0],[0.995,0.63,0],[0.72,0.99,0],[0.5,1,0],[0.28,0.99,0]];shape=mxgraph.kubernetes.icon2;kubernetesLabel=1;prIcon=pod" vertex="1" parent="1">
                    <mxGeometry x="956.1700000000001" y="820" width="83.34" height="80" as="geometry"/>
                </mxCell>
                <mxCell id="54" value="" style="aspect=fixed;sketch=0;html=1;dashed=0;whitespace=wrap;verticalLabelPosition=bottom;verticalAlign=top;fillColor=#2875E2;strokeColor=#ffffff;points=[[0.005,0.63,0],[0.1,0.2,0],[0.9,0.2,0],[0.5,0,0],[0.995,0.63,0],[0.72,0.99,0],[0.5,1,0],[0.28,0.99,0]];shape=mxgraph.kubernetes.icon2;kubernetesLabel=1;prIcon=pod" vertex="1" parent="1">
                    <mxGeometry x="716.1700000000001" y="940" width="83.34" height="80" as="geometry"/>
                </mxCell>
                <mxCell id="55" value="" style="aspect=fixed;sketch=0;html=1;dashed=0;whitespace=wrap;verticalLabelPosition=bottom;verticalAlign=top;fillColor=#2875E2;strokeColor=#ffffff;points=[[0.005,0.63,0],[0.1,0.2,0],[0.9,0.2,0],[0.5,0,0],[0.995,0.63,0],[0.72,0.99,0],[0.5,1,0],[0.28,0.99,0]];shape=mxgraph.kubernetes.icon2;kubernetesLabel=1;prIcon=pod" vertex="1" parent="1">
                    <mxGeometry x="836.1700000000001" y="940" width="83.34" height="80" as="geometry"/>
                </mxCell>
                <mxCell id="56" value="" style="aspect=fixed;sketch=0;html=1;dashed=0;whitespace=wrap;verticalLabelPosition=bottom;verticalAlign=top;fillColor=#2875E2;strokeColor=#ffffff;points=[[0.005,0.63,0],[0.1,0.2,0],[0.9,0.2,0],[0.5,0,0],[0.995,0.63,0],[0.72,0.99,0],[0.5,1,0],[0.28,0.99,0]];shape=mxgraph.kubernetes.icon2;kubernetesLabel=1;prIcon=pod" vertex="1" parent="1">
                    <mxGeometry x="956.1700000000001" y="940" width="83.34" height="80" as="geometry"/>
                </mxCell>
                <mxCell id="57" value="" style="aspect=fixed;sketch=0;html=1;dashed=0;whitespace=wrap;verticalLabelPosition=bottom;verticalAlign=top;fillColor=#2875E2;strokeColor=#ffffff;points=[[0.005,0.63,0],[0.1,0.2,0],[0.9,0.2,0],[0.5,0,0],[0.995,0.63,0],[0.72,0.99,0],[0.5,1,0],[0.28,0.99,0]];shape=mxgraph.kubernetes.icon2;kubernetesLabel=1;prIcon=pod" vertex="1" parent="1">
                    <mxGeometry x="716.1700000000001" y="1060" width="83.34" height="80" as="geometry"/>
                </mxCell>
                <mxCell id="58" value="" style="aspect=fixed;sketch=0;html=1;dashed=0;whitespace=wrap;verticalLabelPosition=bottom;verticalAlign=top;fillColor=#2875E2;strokeColor=#ffffff;points=[[0.005,0.63,0],[0.1,0.2,0],[0.9,0.2,0],[0.5,0,0],[0.995,0.63,0],[0.72,0.99,0],[0.5,1,0],[0.28,0.99,0]];shape=mxgraph.kubernetes.icon2;kubernetesLabel=1;prIcon=pod" vertex="1" parent="1">
                    <mxGeometry x="836.1700000000001" y="1060" width="83.34" height="80" as="geometry"/>
                </mxCell>
                <mxCell id="59" value="" style="aspect=fixed;sketch=0;html=1;dashed=0;whitespace=wrap;verticalLabelPosition=bottom;verticalAlign=top;fillColor=#2875E2;strokeColor=#ffffff;points=[[0.005,0.63,0],[0.1,0.2,0],[0.9,0.2,0],[0.5,0,0],[0.995,0.63,0],[0.72,0.99,0],[0.5,1,0],[0.28,0.99,0]];shape=mxgraph.kubernetes.icon2;kubernetesLabel=1;prIcon=pod" vertex="1" parent="1">
                    <mxGeometry x="956.1700000000001" y="1060" width="83.34" height="80" as="geometry"/>
                </mxCell>
                <mxCell id="60" value="&lt;font style=&quot;font-size: 20px;&quot; data-font-src=&quot;https://fonts.googleapis.com/css?family=Indie+Flower&quot; face=&quot;Indie Flower&quot;&gt;DaemonSet/ReplicaSet/StatefulSet/Deployment&lt;/font&gt;" style="text;html=1;align=center;verticalAlign=middle;resizable=0;points=[];autosize=1;strokeColor=none;fillColor=none;" vertex="1" parent="1">
                    <mxGeometry x="676.1700000000001" y="780" width="420" height="40" as="geometry"/>
                </mxCell>
                <mxCell id="61" value="Deployment&lt;br&gt;Rolling Updates" style="text;html=1;align=left;verticalAlign=middle;resizable=0;points=[];autosize=1;strokeColor=none;fillColor=none;" vertex="1" parent="1">
                    <mxGeometry x="989.3500000000001" y="740" width="110" height="40" as="geometry"/>
                </mxCell>
                <mxCell id="64" value="" style="aspect=fixed;sketch=0;html=1;dashed=0;whitespace=wrap;verticalLabelPosition=bottom;verticalAlign=top;fillColor=#2875E2;strokeColor=#ffffff;points=[[0.005,0.63,0],[0.1,0.2,0],[0.9,0.2,0],[0.5,0,0],[0.995,0.63,0],[0.72,0.99,0],[0.5,1,0],[0.28,0.99,0]];shape=mxgraph.kubernetes.icon2;kubernetesLabel=1;prIcon=pod" vertex="1" parent="1">
                    <mxGeometry x="225" y="842" width="50" height="48" as="geometry"/>
                </mxCell>
                <mxCell id="65" value="" style="aspect=fixed;sketch=0;html=1;dashed=0;whitespace=wrap;verticalLabelPosition=bottom;verticalAlign=top;fillColor=#2875E2;strokeColor=#ffffff;points=[[0.005,0.63,0],[0.1,0.2,0],[0.9,0.2,0],[0.5,0,0],[0.995,0.63,0],[0.72,0.99,0],[0.5,1,0],[0.28,0.99,0]];shape=mxgraph.kubernetes.icon2;kubernetesLabel=1;prIcon=deploy" vertex="1" parent="1">
                    <mxGeometry x="301.96" y="842" width="50" height="48" as="geometry"/>
                </mxCell>
                <mxCell id="66" value="" style="aspect=fixed;sketch=0;html=1;dashed=0;whitespace=wrap;verticalLabelPosition=bottom;verticalAlign=top;fillColor=#2875E2;strokeColor=#ffffff;points=[[0.005,0.63,0],[0.1,0.2,0],[0.9,0.2,0],[0.5,0,0],[0.995,0.63,0],[0.72,0.99,0],[0.5,1,0],[0.28,0.99,0]];shape=mxgraph.kubernetes.icon2;kubernetesLabel=1;prIcon=svc" vertex="1" parent="1">
                    <mxGeometry x="377.45" y="842" width="50" height="48" as="geometry"/>
                </mxCell>
                <mxCell id="68" value="" style="aspect=fixed;sketch=0;html=1;dashed=0;whitespace=wrap;verticalLabelPosition=bottom;verticalAlign=top;fillColor=#2875E2;strokeColor=#ffffff;points=[[0.005,0.63,0],[0.1,0.2,0],[0.9,0.2,0],[0.5,0,0],[0.995,0.63,0],[0.72,0.99,0],[0.5,1,0],[0.28,0.99,0]];shape=mxgraph.kubernetes.icon2;kubernetesLabel=1;prIcon=user" vertex="1" parent="1">
                    <mxGeometry x="454" y="842" width="50" height="48" as="geometry"/>
                </mxCell>
                <mxCell id="69" value="" style="image;sketch=0;aspect=fixed;html=1;points=[];align=center;fontSize=12;image=img/lib/mscae/Docker.svg;" vertex="1" parent="1">
                    <mxGeometry x="155" y="849" width="50" height="41" as="geometry"/>
                </mxCell>
                <mxCell id="70" value="" style="aspect=fixed;sketch=0;html=1;dashed=0;whitespace=wrap;verticalLabelPosition=bottom;verticalAlign=top;fillColor=#2875E2;strokeColor=#ffffff;points=[[0.005,0.63,0],[0.1,0.2,0],[0.9,0.2,0],[0.5,0,0],[0.995,0.63,0],[0.72,0.99,0],[0.5,1,0],[0.28,0.99,0]];shape=mxgraph.kubernetes.icon2;kubernetesLabel=1;prIcon=ns" vertex="1" parent="1">
                    <mxGeometry x="26.82" y="842" width="50" height="48" as="geometry"/>
                </mxCell>
                <mxCell id="71" value="" style="aspect=fixed;sketch=0;html=1;dashed=0;whitespace=wrap;verticalLabelPosition=bottom;verticalAlign=top;fillColor=#2875E2;strokeColor=#ffffff;points=[[0.005,0.63,0],[0.1,0.2,0],[0.9,0.2,0],[0.5,0,0],[0.995,0.63,0],[0.72,0.99,0],[0.5,1,0],[0.28,0.99,0]];shape=mxgraph.kubernetes.icon2;kubernetesLabel=1;prIcon=pod" vertex="1" parent="1">
                    <mxGeometry x="225" y="952" width="50" height="48" as="geometry"/>
                </mxCell>
                <mxCell id="72" value="" style="aspect=fixed;sketch=0;html=1;dashed=0;whitespace=wrap;verticalLabelPosition=bottom;verticalAlign=top;fillColor=#2875E2;strokeColor=#ffffff;points=[[0.005,0.63,0],[0.1,0.2,0],[0.9,0.2,0],[0.5,0,0],[0.995,0.63,0],[0.72,0.99,0],[0.5,1,0],[0.28,0.99,0]];shape=mxgraph.kubernetes.icon2;kubernetesLabel=1;prIcon=deploy" vertex="1" parent="1">
                    <mxGeometry x="301.96" y="952" width="50" height="48" as="geometry"/>
                </mxCell>
                <mxCell id="73" value="" style="aspect=fixed;sketch=0;html=1;dashed=0;whitespace=wrap;verticalLabelPosition=bottom;verticalAlign=top;fillColor=#2875E2;strokeColor=#ffffff;points=[[0.005,0.63,0],[0.1,0.2,0],[0.9,0.2,0],[0.5,0,0],[0.995,0.63,0],[0.72,0.99,0],[0.5,1,0],[0.28,0.99,0]];shape=mxgraph.kubernetes.icon2;kubernetesLabel=1;prIcon=svc" vertex="1" parent="1">
                    <mxGeometry x="377.45" y="952" width="50" height="48" as="geometry"/>
                </mxCell>
                <mxCell id="74" value="" style="aspect=fixed;sketch=0;html=1;dashed=0;whitespace=wrap;verticalLabelPosition=bottom;verticalAlign=top;fillColor=#2875E2;strokeColor=#ffffff;points=[[0.005,0.63,0],[0.1,0.2,0],[0.9,0.2,0],[0.5,0,0],[0.995,0.63,0],[0.72,0.99,0],[0.5,1,0],[0.28,0.99,0]];shape=mxgraph.kubernetes.icon2;kubernetesLabel=1;prIcon=user" vertex="1" parent="1">
                    <mxGeometry x="454" y="952" width="50" height="48" as="geometry"/>
                </mxCell>
                <mxCell id="75" value="" style="image;sketch=0;aspect=fixed;html=1;points=[];align=center;fontSize=12;image=img/lib/mscae/Docker.svg;" vertex="1" parent="1">
                    <mxGeometry x="155" y="959" width="50" height="41" as="geometry"/>
                </mxCell>
                <mxCell id="76" value="" style="aspect=fixed;sketch=0;html=1;dashed=0;whitespace=wrap;verticalLabelPosition=bottom;verticalAlign=top;fillColor=#2875E2;strokeColor=#ffffff;points=[[0.005,0.63,0],[0.1,0.2,0],[0.9,0.2,0],[0.5,0,0],[0.995,0.63,0],[0.72,0.99,0],[0.5,1,0],[0.28,0.99,0]];shape=mxgraph.kubernetes.icon2;kubernetesLabel=1;prIcon=ns" vertex="1" parent="1">
                    <mxGeometry x="26.82" y="952" width="50" height="48" as="geometry"/>
                </mxCell>
                <mxCell id="77" value="" style="shape=curlyBracket;whiteSpace=wrap;html=1;rounded=1;labelPosition=left;verticalLabelPosition=middle;align=right;verticalAlign=middle;size=0.5;" vertex="1" parent="1">
                    <mxGeometry x="130" y="834.5" width="20" height="70" as="geometry"/>
                </mxCell>
                <mxCell id="78" value="" style="shape=curlyBracket;whiteSpace=wrap;html=1;rounded=1;labelPosition=left;verticalLabelPosition=middle;align=right;verticalAlign=middle;size=0.5;" vertex="1" parent="1">
                    <mxGeometry x="130" y="941" width="20" height="70" as="geometry"/>
                </mxCell>
                <mxCell id="79" value="" style="shape=curlyBracket;whiteSpace=wrap;html=1;rounded=1;flipH=1;labelPosition=right;verticalLabelPosition=middle;align=left;verticalAlign=middle;" vertex="1" parent="1">
                    <mxGeometry x="509.67999999999995" y="834.5" width="20" height="67.5" as="geometry"/>
                </mxCell>
                <mxCell id="80" value="" style="shape=curlyBracket;whiteSpace=wrap;html=1;rounded=1;flipH=1;labelPosition=right;verticalLabelPosition=middle;align=left;verticalAlign=middle;" vertex="1" parent="1">
                    <mxGeometry x="509.67999999999995" y="941" width="20" height="67.5" as="geometry"/>
                </mxCell>
                <mxCell id="81" value="&lt;font style=&quot;color: rgb(0, 0, 0);&quot;&gt;Groups or&amp;nbsp;&lt;br&gt;&lt;/font&gt;&lt;div style=&quot;text-align: left;&quot;&gt;&lt;span style=&quot;background-color: transparent;&quot;&gt;&lt;font style=&quot;color: rgb(0, 0, 0);&quot;&gt;Namespace&lt;/font&gt;&lt;/span&gt;&lt;/div&gt;" style="text;html=1;align=center;verticalAlign=middle;resizable=0;points=[];autosize=1;strokeColor=none;fillColor=none;" vertex="1" parent="1">
                    <mxGeometry x="10" y="805" width="90" height="40" as="geometry"/>
                </mxCell>
                <mxCell id="82" value="Resources" style="text;html=1;align=center;verticalAlign=middle;resizable=0;points=[];autosize=1;strokeColor=none;fillColor=none;" vertex="1" parent="1">
                    <mxGeometry x="235" y="800" width="80" height="30" as="geometry"/>
                </mxCell>
                <mxCell id="83" value="&lt;font style=&quot;font-size: 16px;&quot;&gt;STORAGE&lt;/font&gt;" style="text;html=1;align=center;verticalAlign=middle;resizable=0;points=[];autosize=1;strokeColor=none;fillColor=none;" vertex="1" parent="1">
                    <mxGeometry x="80" y="1078" width="100" height="30" as="geometry"/>
                </mxCell>
                <mxCell id="84" value="" style="aspect=fixed;sketch=0;html=1;dashed=0;whitespace=wrap;verticalLabelPosition=bottom;verticalAlign=top;fillColor=#2875E2;strokeColor=#ffffff;points=[[0.005,0.63,0],[0.1,0.2,0],[0.9,0.2,0],[0.5,0,0],[0.995,0.63,0],[0.72,0.99,0],[0.5,1,0],[0.28,0.99,0]];shape=mxgraph.kubernetes.icon2;kubernetesLabel=1;prIcon=pod" vertex="1" parent="1">
                    <mxGeometry x="80" y="1200" width="50" height="48" as="geometry"/>
                </mxCell>
                <mxCell id="85" value="" style="aspect=fixed;sketch=0;html=1;dashed=0;whitespace=wrap;verticalLabelPosition=bottom;verticalAlign=top;fillColor=#2875E2;strokeColor=#ffffff;points=[[0.005,0.63,0],[0.1,0.2,0],[0.9,0.2,0],[0.5,0,0],[0.995,0.63,0],[0.72,0.99,0],[0.5,1,0],[0.28,0.99,0]];shape=mxgraph.kubernetes.icon2;kubernetesLabel=1;prIcon=pod" vertex="1" parent="1">
                    <mxGeometry x="155.51" y="1200" width="50" height="48" as="geometry"/>
                </mxCell>
                <mxCell id="86" value="" style="aspect=fixed;sketch=0;html=1;dashed=0;whitespace=wrap;verticalLabelPosition=bottom;verticalAlign=top;fillColor=#2875E2;strokeColor=#ffffff;points=[[0.005,0.63,0],[0.1,0.2,0],[0.9,0.2,0],[0.5,0,0],[0.995,0.63,0],[0.72,0.99,0],[0.5,1,0],[0.28,0.99,0]];shape=mxgraph.kubernetes.icon2;kubernetesLabel=1;prIcon=pod" vertex="1" parent="1">
                    <mxGeometry x="235" y="1200" width="50" height="48" as="geometry"/>
                </mxCell>
                <mxCell id="88" value="&lt;font data-font-src=&quot;https://fonts.googleapis.com/css?family=Indie+Flower&quot; face=&quot;Indie Flower&quot;&gt;(data)&lt;/font&gt;" style="text;html=1;align=center;verticalAlign=middle;resizable=0;points=[];autosize=1;strokeColor=none;fillColor=none;" vertex="1" parent="1">
                    <mxGeometry x="76.82" y="1248" width="50" height="30" as="geometry"/>
                </mxCell>
                <mxCell id="89" value="&lt;font data-font-src=&quot;https://fonts.googleapis.com/css?family=Indie+Flower&quot; face=&quot;Indie Flower&quot;&gt;(data)&lt;/font&gt;" style="text;html=1;align=center;verticalAlign=middle;resizable=0;points=[];autosize=1;strokeColor=none;fillColor=none;" vertex="1" parent="1">
                    <mxGeometry x="155.51" y="1248" width="50" height="30" as="geometry"/>
                </mxCell>
                <mxCell id="90" value="&lt;font data-font-src=&quot;https://fonts.googleapis.com/css?family=Indie+Flower&quot; face=&quot;Indie Flower&quot;&gt;(data)&lt;/font&gt;" style="text;html=1;align=center;verticalAlign=middle;resizable=0;points=[];autosize=1;strokeColor=none;fillColor=none;" vertex="1" parent="1">
                    <mxGeometry x="235" y="1248" width="50" height="30" as="geometry"/>
                </mxCell>
                <mxCell id="91" value="" style="rounded=1;whiteSpace=wrap;html=1;fillColor=none;strokeColor=#82b366;" vertex="1" parent="1">
                    <mxGeometry x="403" y="1193" width="110" height="150" as="geometry"/>
                </mxCell>
                <mxCell id="92" value="HOST" style="text;html=1;align=center;verticalAlign=middle;resizable=0;points=[];autosize=1;strokeColor=none;fillColor=none;" vertex="1" parent="1">
                    <mxGeometry x="415.45" y="1163" width="60" height="30" as="geometry"/>
                </mxCell>
                <mxCell id="93" value="PV&lt;br&gt;&lt;br&gt;&lt;br&gt;PVC" style="text;html=1;align=left;verticalAlign=middle;resizable=0;points=[];autosize=1;strokeColor=none;fillColor=none;" vertex="1" parent="1">
                    <mxGeometry x="432.45" y="1201" width="50" height="70" as="geometry"/>
                </mxCell>
                <mxCell id="94" value="" style="endArrow=classic;startArrow=classic;html=1;entryX=0.455;entryY=0.688;entryDx=0;entryDy=0;entryPerimeter=0;edgeStyle=orthogonalEdgeStyle;curved=1;" edge="1" parent="1" target="91">
                    <mxGeometry width="50" height="50" relative="1" as="geometry">
                        <mxPoint x="270" y="1270" as="sourcePoint"/>
                        <mxPoint x="320" y="1220" as="targetPoint"/>
                    </mxGeometry>
                </mxCell>
                <mxCell id="95" value="Persist&lt;br&gt;(Bind)" style="text;html=1;align=center;verticalAlign=middle;resizable=0;points=[];autosize=1;strokeColor=none;fillColor=none;" vertex="1" parent="1">
                    <mxGeometry x="301.96" y="1278" width="60" height="40" as="geometry"/>
                </mxCell>
                <mxCell id="96" value="" style="rounded=0;whiteSpace=wrap;html=1;" vertex="1" parent="1">
                    <mxGeometry x="613" y="1188" width="210" height="150" as="geometry"/>
                </mxCell>
                <mxCell id="97" value="" style="rounded=0;whiteSpace=wrap;html=1;fillStyle=hatch;fillColor=#000000;" vertex="1" parent="1">
                    <mxGeometry x="612" y="1298" width="71" height="40" as="geometry"/>
                </mxCell>
                <mxCell id="98" value="&lt;font style=&quot;color: rgb(0, 0, 0);&quot;&gt;EC2&lt;/font&gt;" style="text;html=1;align=left;verticalAlign=middle;resizable=0;points=[];autosize=1;strokeColor=none;fillColor=none;" vertex="1" parent="1">
                    <mxGeometry x="612" y="1158" width="50" height="30" as="geometry"/>
                </mxCell>
                <mxCell id="99" value="30GB" style="text;html=1;align=center;verticalAlign=middle;resizable=0;points=[];autosize=1;strokeColor=none;fillColor=none;" vertex="1" parent="1">
                    <mxGeometry x="693" y="1208" width="50" height="30" as="geometry"/>
                </mxCell>
                <mxCell id="100" value="PV" style="text;html=1;align=center;verticalAlign=middle;resizable=0;points=[];autosize=1;strokeColor=none;fillColor=none;" vertex="1" parent="1">
                    <mxGeometry x="714.28" y="1293" width="40" height="30" as="geometry"/>
                </mxCell>
                <mxCell id="101" value="/mnt/data" style="text;html=1;align=center;verticalAlign=middle;resizable=0;points=[];autosize=1;strokeColor=none;fillColor=none;" vertex="1" parent="1">
                    <mxGeometry x="610" y="1272" width="70" height="30" as="geometry"/>
                </mxCell>
                <mxCell id="102" value="1 Gi" style="text;html=1;align=center;verticalAlign=middle;resizable=0;points=[];autosize=1;strokeColor=none;fillColor=none;" vertex="1" parent="1">
                    <mxGeometry x="614.28" y="1338" width="50" height="30" as="geometry"/>
                </mxCell>
                <mxCell id="104" value="volume&lt;br&gt;my-volume&lt;br&gt;/var/www/html" style="text;html=1;align=left;verticalAlign=middle;resizable=0;points=[];autosize=1;strokeColor=none;fillColor=none;" vertex="1" parent="1">
                    <mxGeometry x="285" y="1188" width="100" height="60" as="geometry"/>
                </mxCell>
                <mxCell id="105" value="" style="endArrow=classic;html=1;entryX=0.058;entryY=0.91;entryDx=0;entryDy=0;entryPerimeter=0;" edge="1" parent="1" target="93">
                    <mxGeometry width="50" height="50" relative="1" as="geometry">
                        <mxPoint x="360" y="1215" as="sourcePoint"/>
                        <mxPoint x="420" y="1215" as="targetPoint"/>
                    </mxGeometry>
                </mxCell>
                <mxCell id="106" value="1 Gi&lt;br&gt;local-pvc" style="text;html=1;align=center;verticalAlign=middle;resizable=0;points=[];autosize=1;strokeColor=none;fillColor=none;" vertex="1" parent="1">
                    <mxGeometry x="511.2799999999999" y="1271" width="70" height="40" as="geometry"/>
                </mxCell>
                <mxCell id="107" value="" style="endArrow=classic;html=1;entryX=0.371;entryY=0.1;entryDx=0;entryDy=0;entryPerimeter=0;" edge="1" parent="1" target="106">
                    <mxGeometry width="50" height="50" relative="1" as="geometry">
                        <mxPoint x="460" y="1250" as="sourcePoint"/>
                        <mxPoint x="510" y="1200" as="targetPoint"/>
                    </mxGeometry>
                </mxCell>
                <mxCell id="108" value="PV" style="rounded=0;whiteSpace=wrap;html=1;" vertex="1" parent="1">
                    <mxGeometry x="556.78" y="1342" width="49" height="22" as="geometry"/>
                </mxCell>
                <mxCell id="110" value="" style="endArrow=classic;startArrow=classic;html=1;" edge="1" parent="1">
                    <mxGeometry width="50" height="50" relative="1" as="geometry">
                        <mxPoint x="570" y="1330" as="sourcePoint"/>
                        <mxPoint x="550" y="1310" as="targetPoint"/>
                    </mxGeometry>
                </mxCell>
                <mxCell id="111" value="" style="endArrow=classic;html=1;entryX=0.351;entryY=0.129;entryDx=0;entryDy=0;entryPerimeter=0;" edge="1" parent="1" target="93">
                    <mxGeometry width="50" height="50" relative="1" as="geometry">
                        <mxPoint x="640" y="1280" as="sourcePoint"/>
                        <mxPoint x="690" y="1230" as="targetPoint"/>
                    </mxGeometry>
                </mxCell>
                <mxCell id="112" value="" style="aspect=fixed;sketch=0;html=1;dashed=0;whitespace=wrap;verticalLabelPosition=bottom;verticalAlign=top;fillColor=#2875E2;strokeColor=#ffffff;points=[[0.005,0.63,0],[0.1,0.2,0],[0.9,0.2,0],[0.5,0,0],[0.995,0.63,0],[0.72,0.99,0],[0.5,1,0],[0.28,0.99,0]];shape=mxgraph.kubernetes.icon2;kubernetesLabel=1;prIcon=svc" vertex="1" parent="1">
                    <mxGeometry x="200" y="1390" width="50" height="48" as="geometry"/>
                </mxCell>
                <mxCell id="113" value="" style="endArrow=classic;html=1;" edge="1" parent="1">
                    <mxGeometry width="50" height="50" relative="1" as="geometry">
                        <mxPoint x="160" y="1330" as="sourcePoint"/>
                        <mxPoint x="210" y="1380" as="targetPoint"/>
                    </mxGeometry>
                </mxCell>
                <mxCell id="114" value="deployment" style="text;html=1;align=center;verticalAlign=middle;resizable=0;points=[];autosize=1;strokeColor=none;fillColor=none;" vertex="1" parent="1">
                    <mxGeometry x="100" y="1298" width="90" height="30" as="geometry"/>
                </mxCell>
            </root>
        </mxGraphModel>
    </diagram>
</mxfile>